<svg width="41" height="40" viewBox="0 0 41 40" fill="none" xmlns="http://www.w3.org/2000/svg">
<mask id="mask0_116_3" style="mask-type:luminance" maskUnits="userSpaceOnUse" x="0" y="0" width="41" height="40">
<path d="M40.5 20C40.5 8.9543 31.5457 0 20.5 0C9.4543 0 0.5 8.9543 0.5 20C0.5 31.0457 9.4543 40 20.5 40C31.5457 40 40.5 31.0457 40.5 20Z" fill="white"/>
</mask>
<g mask="url(#mask0_116_3)">
<path d="M40.5 20C40.5 8.9543 31.5457 0 20.5 0C9.4543 0 0.5 8.9543 0.5 20C0.5 31.0457 9.4543 40 20.5 40C31.5457 40 40.5 31.0457 40.5 20Z" fill="url(#paint0_linear_116_3)"/>
<g filter="url(#filter0_dd_116_3)">
<path fill-rule="evenodd" clip-rule="evenodd" d="M11.832 11.3777C11.832 10.9817 12.1531 10.6606 12.5491 10.6606H20.6624V28.3213H12.5491C12.1531 28.3213 11.832 28.0003 11.832 27.6042V11.3777ZM30.8513 19.4911H30.8531V27.6044C30.8531 28.0004 30.532 28.3215 30.1359 28.3215H22.0227V19.4912H22.021V10.6608C26.8978 10.6608 30.8513 14.6143 30.8513 19.4911Z" fill="url(#paint1_linear_116_3)"/>
</g>
</g>
<defs>
<filter id="filter0_dd_116_3" x="-21.418" y="-21.7144" width="85.5211" height="84.1611" filterUnits="userSpaceOnUse" color-interpolation-filters="sRGB">
<feFlood flood-opacity="0" result="BackgroundImageFix"/>
<feColorMatrix in="SourceAlpha" type="matrix" values="0 0 0 0 0 0 0 0 0 0 0 0 0 0 0 0 0 0 127 0" result="hardAlpha"/>
<feOffset dy="0.875"/>
<feGaussianBlur stdDeviation="16.625"/>
<feColorMatrix type="matrix" values="0 0 0 0 0.141176 0 0 0 0 0 0 0 0 0 1 0 0 0 0.2 0"/>
<feBlend mode="normal" in2="BackgroundImageFix" result="effect1_dropShadow_116_3"/>
<feColorMatrix in="SourceAlpha" type="matrix" values="0 0 0 0 0 0 0 0 0 0 0 0 0 0 0 0 0 0 127 0" result="hardAlpha"/>
<feOffset dy="0.875"/>
<feGaussianBlur stdDeviation="1.3125"/>
<feColorMatrix type="matrix" values="0 0 0 0 0.141176 0 0 0 0 0 0 0 0 0 1 0 0 0 0.2 0"/>
<feBlend mode="normal" in2="effect1_dropShadow_116_3" result="effect2_dropShadow_116_3"/>
<feBlend mode="normal" in="SourceGraphic" in2="effect2_dropShadow_116_3" result="shape"/>
</filter>
<linearGradient id="paint0_linear_116_3" x1="20.5" y1="0" x2="20.5" y2="40" gradientUnits="userSpaceOnUse">
<stop stop-color="#FDFDFF"/>
<stop offset="1" stop-color="#C8CCFF"/>
</linearGradient>
<linearGradient id="paint1_linear_116_3" x1="21.3425" y1="10.6606" x2="21.3425" y2="28.3215" gradientUnits="userSpaceOnUse">
<stop stop-color="#27229F" stop-opacity="0.47"/>
<stop offset="1" stop-color="#0C23B3"/>
</linearGradient>
</defs>
</svg>
